<?xml version="1.0" encoding="UTF-8" standalone="no"?>
<!-- Created with Inkscape (http://www.inkscape.org/) -->

<svg
   xmlns:dc="http://purl.org/dc/elements/1.1/"
   xmlns:cc="http://creativecommons.org/ns#"
   xmlns:rdf="http://www.w3.org/1999/02/22-rdf-syntax-ns#"
   xmlns:svg="http://www.w3.org/2000/svg"
   xmlns="http://www.w3.org/2000/svg"
   xmlns:sodipodi="http://sodipodi.sourceforge.net/DTD/sodipodi-0.dtd"
   xmlns:inkscape="http://www.inkscape.org/namespaces/inkscape"
   width="114mm"
   height="42mm"
   viewBox="0 0 114 42"
   version="1.1"
   id="svg8"
   inkscape:version="0.92.4 (5da689c313, 2019-01-14)"
   sodipodi:docname="alex.svg">
  <defs
     id="defs2" />
  <sodipodi:namedview
     id="base"
     pagecolor="#ffffff"
     bordercolor="#666666"
     borderopacity="1.0"
     inkscape:pageopacity="0.0"
     inkscape:pageshadow="2"
     inkscape:zoom="0.7"
     inkscape:cx="195.13899"
     inkscape:cy="466.02324"
     inkscape:document-units="mm"
     inkscape:current-layer="layer1"
     showgrid="false"
     inkscape:window-width="1920"
     inkscape:window-height="1017"
     inkscape:window-x="-8"
     inkscape:window-y="-8"
     inkscape:window-maximized="1" />
  <metadata
     id="metadata5">
    <rdf:RDF>
      <cc:Work
         rdf:about="">
        <dc:format>image/svg+xml</dc:format>
        <dc:type
           rdf:resource="http://purl.org/dc/dcmitype/StillImage" />
        <dc:title />
      </cc:Work>
    </rdf:RDF>
  </metadata>
  <g
     inkscape:label="Layer 1"
     inkscape:groupmode="layer"
     id="layer1"
     transform="translate(0,-255)">
    <g
       aria-label="Alex"
       transform="matrix(0.26444821,0,0,0.26393028,-36.04121,171.04517)"
       style="font-style:normal;font-variant:normal;font-weight:normal;font-stretch:normal;font-size:40px;line-height:1.25;font-family:'Gravitas One';-inkscape-font-specification:'Gravitas One';letter-spacing:0px;word-spacing:0px;fill:#ffffff;fill-opacity:1;stroke:#000000;stroke-width:15.11811066;stroke-linecap:square;stroke-linejoin:bevel;stroke-miterlimit:4;stroke-dasharray:none;stroke-opacity:1;paint-order:stroke fill markers"
       id="flowRoot10">
      <path
         d="m 223.328,433.75722 h -52.416 l -10.56,33.792 H 143.84 l 43.2,-132.288 h 21.12 l 43.008,132.288 h -17.28 z m -48,-13.824 h 43.584 l -21.696,-70.464 z"
         style="font-style:normal;font-variant:normal;font-weight:normal;font-stretch:normal;font-size:192px;font-family:'Fira Code';-inkscape-font-specification:'Fira Code';letter-spacing:-10px;word-spacing:0px;fill:#ffffff;fill-opacity:1;stroke:#000000;stroke-width:15.11811066;stroke-linecap:square;stroke-linejoin:bevel;stroke-miterlimit:4;stroke-dasharray:none;stroke-opacity:1;paint-order:stroke fill markers"
         id="path4554" />
      <path
         d="m 303.877,442.58922 q 0,13.632 16.704,13.632 7.872,0 16.896,-3.456 l 4.224,11.712 q -9.6,5.184 -24,5.184 -13.632,0 -21.888,-7.488 -8.064,-7.488 -8.064,-20.352 v -103.296 h -31.104 v -12.864 h 47.232 z"
         style="font-style:normal;font-variant:normal;font-weight:normal;font-stretch:normal;font-size:192px;font-family:'Fira Code';-inkscape-font-specification:'Fira Code';letter-spacing:-10px;word-spacing:0px;fill:#ffffff;fill-opacity:1;stroke:#000000;stroke-width:15.11811066;stroke-linecap:square;stroke-linejoin:bevel;stroke-miterlimit:4;stroke-dasharray:none;stroke-opacity:1;paint-order:stroke fill markers"
         id="path4556" />
      <path
         d="m 382.314,422.62122 q 0.576,16.704 8.64,25.152 8.256,8.448 20.736,8.448 7.488,0 13.632,-2.112 6.336,-2.304 13.44,-6.912 l 7.488,10.752 q -7.104,5.568 -16.32,8.64 -9.024,3.072 -18.24,3.072 -21.888,0 -34.176,-14.208 -12.096,-14.4 -12.096,-38.4 0,-15.168 5.376,-27.072 5.376,-12.096 15.36,-18.816 9.984,-6.912 23.232,-6.912 19.2,0 30.144,13.44 11.136,13.248 11.136,36.288 0,4.416 -0.384,8.64 z m 27.264,-45.12 q -11.712,0 -19.008,8.448 -7.296,8.256 -8.256,24.384 h 52.608 q -0.192,-15.936 -6.912,-24.384 -6.72,-8.448 -18.432,-8.448 z"
         style="font-style:normal;font-variant:normal;font-weight:normal;font-stretch:normal;font-size:192px;font-family:'Fira Code';-inkscape-font-specification:'Fira Code';letter-spacing:-10px;word-spacing:0px;fill:#ffffff;fill-opacity:1;stroke:#000000;stroke-width:15.11811066;stroke-linecap:square;stroke-linejoin:bevel;stroke-miterlimit:4;stroke-dasharray:none;stroke-opacity:1;paint-order:stroke fill markers"
         id="path4558" />
      <path
         d="m 484.559,467.54922 h -18.432 l 37.248,-53.376 -32.832,-47.808 h 19.2 l 23.424,37.632 23.616,-37.632 h 18.624 l -32.832,47.04 37.248,54.144 h -19.584 l -27.84,-43.392 z"
         style="font-style:normal;font-variant:normal;font-weight:normal;font-stretch:normal;font-size:192px;font-family:'Fira Code';-inkscape-font-specification:'Fira Code';letter-spacing:-10px;word-spacing:0px;fill:#ffffff;fill-opacity:1;stroke:#000000;stroke-width:15.11811066;stroke-linecap:square;stroke-linejoin:bevel;stroke-miterlimit:4;stroke-dasharray:none;stroke-opacity:1;paint-order:stroke fill markers"
         id="path4560" />
    </g>
  </g>
</svg>
