<?xml version="1.0" encoding="UTF-8" standalone="no"?>
<!-- Created with Inkscape (http://www.inkscape.org/) -->

<svg
   xmlns:dc="http://purl.org/dc/elements/1.1/"
   xmlns:cc="http://creativecommons.org/ns#"
   xmlns:rdf="http://www.w3.org/1999/02/22-rdf-syntax-ns#"
   xmlns:svg="http://www.w3.org/2000/svg"
   xmlns="http://www.w3.org/2000/svg"
   xmlns:sodipodi="http://sodipodi.sourceforge.net/DTD/sodipodi-0.dtd"
   xmlns:inkscape="http://www.inkscape.org/namespaces/inkscape"
   width="137mm"
   height="40mm"
   viewBox="0 0 137 40"
   version="1.1"
   id="svg8"
   inkscape:version="0.92.4 (5da689c313, 2019-01-14)"
   sodipodi:docname="jonas.svg">
  <defs
     id="defs2" />
  <sodipodi:namedview
     id="base"
     pagecolor="#ffffff"
     bordercolor="#666666"
     borderopacity="1.0"
     inkscape:pageopacity="0.0"
     inkscape:pageshadow="2"
     inkscape:zoom="0.7"
     inkscape:cx="195.13899"
     inkscape:cy="466.02324"
     inkscape:document-units="mm"
     inkscape:current-layer="layer1"
     showgrid="false"
     inkscape:window-width="1920"
     inkscape:window-height="1017"
     inkscape:window-x="-8"
     inkscape:window-y="-8"
     inkscape:window-maximized="1" />
  <metadata
     id="metadata5">
    <rdf:RDF>
      <cc:Work
         rdf:about="">
        <dc:format>image/svg+xml</dc:format>
        <dc:type
           rdf:resource="http://purl.org/dc/dcmitype/StillImage" />
        <dc:title></dc:title>
      </cc:Work>
    </rdf:RDF>
  </metadata>
  <g
     inkscape:label="Layer 1"
     inkscape:groupmode="layer"
     id="layer1"
     transform="translate(0,-257)">
    <g
       aria-label="Jonas"
       transform="matrix(0.26454344,0,0,0.26732377,-38.733744,169.38689)"
       style="font-style:normal;font-variant:normal;font-weight:normal;font-stretch:normal;font-size:40px;line-height:1.25;font-family:'Gravitas One';-inkscape-font-specification:'Gravitas One';letter-spacing:0px;word-spacing:0px;fill:#ffffff;fill-opacity:1;stroke:#000000;stroke-width:15.11811066;stroke-linecap:square;stroke-linejoin:bevel;stroke-miterlimit:4;stroke-dasharray:none;stroke-opacity:1;paint-order:stroke fill markers"
       id="flowRoot10">
      <path
         d="m 235.424,423.58122 q 0,19.392 -10.752,32.832 -10.56,13.44 -34.56,13.44 -9.792,0 -19.2,-3.072 -9.216,-3.072 -16.896,-9.024 l 7.296,-10.944 q 14.4,9.024 28.608,9.024 13.824,0 21.312,-8.64 7.488,-8.832 7.488,-24.384 v -73.92 h -39.168 v -13.632 h 55.872 z"
         style="font-style:normal;font-variant:normal;font-weight:normal;font-stretch:normal;font-size:192px;font-family:'Fira Code';-inkscape-font-specification:'Fira Code';letter-spacing:-10px;word-spacing:0px;fill:#ffffff;fill-opacity:1;stroke:#000000;stroke-width:15.11811066;stroke-linecap:square;stroke-linejoin:bevel;stroke-miterlimit:4;stroke-dasharray:none;stroke-opacity:1;paint-order:stroke fill markers"
         id="path4534" />
      <path
         d="m 302.917,364.25322 q 20.928,0 32.064,14.208 11.328,14.016 11.328,38.4 0,23.808 -11.52,38.4 -11.328,14.4 -32.064,14.4 -20.928,0 -32.256,-14.016 -11.328,-14.208 -11.328,-38.592 0,-24 11.328,-38.4 11.52,-14.4 32.448,-14.4 z m 0,13.248 q -13.248,0 -19.776,9.792 -6.528,9.792 -6.528,29.76 0,19.968 6.336,29.76 6.528,9.6 19.776,9.6 13.248,0 19.584,-9.6 6.528,-9.792 6.528,-29.952 0,-19.968 -6.528,-29.568 -6.336,-9.792 -19.392,-9.792 z"
         style="font-style:normal;font-variant:normal;font-weight:normal;font-stretch:normal;font-size:192px;font-family:'Fira Code';-inkscape-font-specification:'Fira Code';letter-spacing:-10px;word-spacing:0px;fill:#ffffff;fill-opacity:1;stroke:#000000;stroke-width:15.11811066;stroke-linecap:square;stroke-linejoin:bevel;stroke-miterlimit:4;stroke-dasharray:none;stroke-opacity:1;paint-order:stroke fill markers"
         id="path4536" />
      <path
         d="m 369.45,366.36522 h 13.824 l 1.344,14.208 q 5.952,-7.68 14.976,-11.904 9.216,-4.416 18.432,-4.416 28.416,0 28.416,29.952 v 73.344 h -16.128 v -61.44 q 0,-11.328 -1.344,-17.28 -1.152,-5.952 -4.8,-8.832 -3.648,-2.88 -11.136,-2.88 -8.256,0 -15.552,4.992 -7.296,4.992 -11.904,11.904 v 73.536 H 369.45 Z"
         style="font-style:normal;font-variant:normal;font-weight:normal;font-stretch:normal;font-size:192px;font-family:'Fira Code';-inkscape-font-specification:'Fira Code';letter-spacing:-10px;word-spacing:0px;fill:#ffffff;fill-opacity:1;stroke:#000000;stroke-width:15.11811066;stroke-linecap:square;stroke-linejoin:bevel;stroke-miterlimit:4;stroke-dasharray:none;stroke-opacity:1;paint-order:stroke fill markers"
         id="path4538" />
      <path
         d="m 547.151,445.46922 q 0,5.952 1.92,8.832 1.92,2.688 6.336,4.032 l -4.032,11.52 q -14.784,-1.92 -18.432,-14.4 -5.376,6.912 -13.632,10.56 -8.064,3.648 -18.048,3.648 -15.168,0 -24,-8.448 -8.64,-8.448 -8.64,-22.656 0,-15.552 12.096,-24 12.288,-8.448 35.136,-8.448 h 14.976 v -8.256 q 0,-10.752 -6.144,-15.36 -6.144,-4.8 -17.856,-4.8 -11.52,0 -26.304,5.184 l -4.416,-12.288 q 17.856,-6.336 33.216,-6.336 18.432,0 28.032,8.64 9.792,8.64 9.792,24 z m -41.856,12.096 q 7.488,0 14.208,-3.84 6.912,-3.84 11.328,-10.56 v -25.92 h -14.592 q -16.128,0 -23.232,5.376 -7.104,5.376 -7.104,15.744 0,19.2 19.392,19.2 z"
         style="font-style:normal;font-variant:normal;font-weight:normal;font-stretch:normal;font-size:192px;font-family:'Fira Code';-inkscape-font-specification:'Fira Code';letter-spacing:-10px;word-spacing:0px;fill:#ffffff;fill-opacity:1;stroke:#000000;stroke-width:15.11811066;stroke-linecap:square;stroke-linejoin:bevel;stroke-miterlimit:4;stroke-dasharray:none;stroke-opacity:1;paint-order:stroke fill markers"
         id="path4540" />
      <path
         d="m 614.26,456.41322 q 11.52,0 18.24,-4.416 6.72,-4.416 6.72,-11.712 0,-4.992 -1.728,-8.064 -1.728,-3.264 -6.912,-5.76 -5.184,-2.688 -15.744,-5.376 -17.664,-4.416 -26.112,-10.56 -8.448,-6.336 -8.448,-18.624 0,-12.672 10.56,-20.16 10.56,-7.488 27.84,-7.488 21.12,0 36.864,11.136 l -7.296,11.136 q -6.336,-4.416 -13.248,-6.72 -6.912,-2.496 -15.936,-2.496 -21.888,0 -21.888,13.248 0,4.608 2.304,7.488 2.496,2.88 7.872,5.184 5.568,2.112 16.512,5.184 16.512,4.416 24.576,11.328 8.256,6.72 8.256,19.776 0,15.168 -12.288,22.656 -12.288,7.488 -30.144,7.488 -23.808,0 -39.552,-13.632 l 9.024,-10.56 q 6.144,4.992 14.016,8.064 7.872,2.88 16.512,2.88 z"
         style="font-style:normal;font-variant:normal;font-weight:normal;font-stretch:normal;font-size:192px;font-family:'Fira Code';-inkscape-font-specification:'Fira Code';letter-spacing:-10px;word-spacing:0px;fill:#ffffff;fill-opacity:1;stroke:#000000;stroke-width:15.11811066;stroke-linecap:square;stroke-linejoin:bevel;stroke-miterlimit:4;stroke-dasharray:none;stroke-opacity:1;paint-order:stroke fill markers"
         id="path4542" />
    </g>
  </g>
</svg>
